<svg width="73" height="73" viewBox="0 0 73 73" fill="none" xmlns="http://www.w3.org/2000/svg">
<circle cx="36.5" cy="36.5" r="36.5" fill="#EA4337"/>
<path d="M49.0749 24.9441C48.3274 24.1966 47.1199 24.1966 46.3724 24.9441L36.9999 34.2975L27.6274 24.925C26.8799 24.1775 25.6724 24.1775 24.9249 24.925C24.1774 25.6725 24.1774 26.88 24.9249 27.6275L34.2974 37L24.9249 46.3725C24.1774 47.12 24.1774 48.3275 24.9249 49.075C25.6724 49.8225 26.8799 49.8225 27.6274 49.075L36.9999 39.7025L46.3724 49.075C47.1199 49.8225 48.3274 49.8225 49.0749 49.075C49.8224 48.3275 49.8224 47.12 49.0749 46.3725L39.7024 37L49.0749 27.6275C49.8032 26.8991 49.8032 25.6725 49.0749 24.9441Z" fill="white"/>
</svg>
