<svg width="199" height="184" viewBox="0 0 199 184" fill="none" xmlns="http://www.w3.org/2000/svg">
<g filter="url(#filter0_i_1_4)">
<circle cx="94.2441" cy="96.4878" r="87.5122" fill="#201923"/>
</g>
<g filter="url(#filter1_d_1_4)">
<circle cx="94.244" cy="94.9919" r="65.8211" fill="#22BA79"/>
<mask id="mask0_1_4" style="mask-type:alpha" maskUnits="userSpaceOnUse" x="50" y="50" width="89" height="89">
<path fill-rule="evenodd" clip-rule="evenodd" d="M63.666 63.661C61.5232 65.7999 59.6522 68.1108 58.049 70.5464C56.7701 72.4857 55.6606 74.5104 54.7258 76.5889C47.4609 92.7048 50.4401 112.346 63.666 125.568C80.7352 142.643 108.505 142.643 125.573 125.568C142.641 108.502 142.641 80.7301 125.573 63.661C117.039 55.1277 105.829 50.8618 94.6203 50.8618C83.4098 50.8618 72.2006 55.1277 63.666 63.661ZM90.542 105.391C80.1732 101.183 69.9541 96.6714 60.3888 90.8193L60.3691 90.8075C59.1585 90.0735 58.5532 88.6502 58.8368 87.2624C59.2097 85.4307 59.7231 83.6227 60.3796 81.8514C61.7228 78.2262 63.6608 74.773 66.1975 71.6454C66.9972 70.6541 67.8559 69.6969 68.7776 68.7752C83.0251 54.5264 106.209 54.5264 120.462 68.7752C123.63 71.9422 126.092 75.5529 127.851 79.4092C129.049 82.0392 126.61 84.8582 123.84 84.0363C121.458 83.3338 119.072 82.6511 116.672 82.0195C111.137 80.5581 105.53 79.3331 99.9393 78.049C98.9939 77.8336 98.6328 77.4529 98.9177 76.4865C99.4167 74.8071 99.8631 73.112 100.337 71.4274C100.826 69.6733 99.9445 68.7568 98.1444 69.1861C96.9023 69.4842 95.6733 69.8374 94.4299 70.1446C89.5428 71.3539 84.6571 72.5343 79.7885 73.7791C78.0711 74.211 77.8006 75.1118 78.9482 76.4221C80.0695 77.7063 81.2814 78.909 82.4565 80.1419C85.8283 83.6687 89.1765 87.2112 92.5759 90.709C93.8416 92.0076 94.6688 91.8435 95.261 90.1444C95.8624 88.4099 96.3364 86.6164 96.7539 84.8215C97.0323 83.6043 97.6205 83.4021 98.6958 83.8407C109.065 88.0475 119.285 92.5604 128.85 98.4125C128.858 98.4164 128.865 98.4203 128.871 98.4256C130.075 99.1569 130.689 100.572 130.406 101.954C130.257 102.697 130.083 103.439 129.885 104.175C129.217 106.653 128.285 109.075 127.087 111.394C125.405 114.657 123.195 117.722 120.462 120.457C117.771 123.146 114.757 125.329 111.548 127.007C97.7702 134.197 80.336 132.014 68.7776 120.457C65.6093 117.288 63.1461 113.679 61.388 109.823C60.1879 107.194 62.6261 104.374 65.3992 105.194C67.7797 105.897 70.1668 106.579 72.5669 107.214C78.1026 108.674 83.7078 109.897 89.2986 111.181C90.244 111.399 90.6051 111.778 90.3215 112.741C89.8238 114.423 89.3761 116.117 88.8968 117.8C88.4097 119.557 89.2947 120.475 91.0883 120.046C92.3317 119.746 93.5659 119.394 94.808 119.087C99.6911 117.875 104.577 116.695 109.449 115.453C111.164 115.019 111.439 114.121 110.291 112.808C109.168 111.524 107.958 110.323 106.783 109.085C103.41 105.563 100.057 102.014 96.662 98.5201C95.3989 97.2189 94.5704 97.3857 93.9769 99.0847C93.3782 100.822 92.9015 102.615 92.4853 104.409C92.2936 105.244 91.9562 105.604 91.4152 105.604C91.1684 105.604 90.8782 105.529 90.542 105.391Z" fill="white"/>
</mask>
<g mask="url(#mask0_1_4)">
<path fill-rule="evenodd" clip-rule="evenodd" d="M47.333 142.608H143.314V45.2158H47.333V142.608Z" fill="white"/>
</g>
</g>
<circle cx="148.098" cy="26.9268" r="4.4878" fill="#22BA79"/>
<circle cx="13.4634" cy="20.1951" r="4.4878" fill="#22BA79"/>
<circle cx="160.813" cy="151.089" r="3.73984" fill="#22BA79"/>
<circle cx="196.342" cy="108.829" r="1.86992" fill="#22BA79"/>
<circle cx="8.60185" cy="72.9268" r="1.86992" fill="#22BA79"/>
<circle cx="164.179" cy="1.86992" r="1.86992" fill="#22BA79"/>
<circle cx="174.65" cy="175.398" r="1.86992" fill="#22BA79"/>
<circle cx="1.86992" cy="161.187" r="1.86992" fill="#22BA79"/>
<circle cx="96.1141" cy="175.398" r="1.86992" fill="#22BA79"/>
<circle cx="40.7644" cy="170.163" r="7.10569" fill="#22BA79"/>
<defs>
<filter id="filter0_i_1_4" x="6.73193" y="8.97559" width="175.024" height="176.024" filterUnits="userSpaceOnUse" color-interpolation-filters="sRGB">
<feFlood flood-opacity="0" result="BackgroundImageFix"/>
<feBlend mode="normal" in="SourceGraphic" in2="BackgroundImageFix" result="shape"/>
<feColorMatrix in="SourceAlpha" type="matrix" values="0 0 0 0 0 0 0 0 0 0 0 0 0 0 0 0 0 0 127 0" result="hardAlpha"/>
<feOffset dy="1"/>
<feGaussianBlur stdDeviation="13"/>
<feComposite in2="hardAlpha" operator="arithmetic" k2="-1" k3="1"/>
<feColorMatrix type="matrix" values="0 0 0 0 0 0 0 0 0 0 0 0 0 0 0 0 0 0 0.5 0"/>
<feBlend mode="normal" in2="shape" result="effect1_innerShadow_1_4"/>
</filter>
<filter id="filter1_d_1_4" x="11.4229" y="14.1707" width="165.642" height="165.642" filterUnits="userSpaceOnUse" color-interpolation-filters="sRGB">
<feFlood flood-opacity="0" result="BackgroundImageFix"/>
<feColorMatrix in="SourceAlpha" type="matrix" values="0 0 0 0 0 0 0 0 0 0 0 0 0 0 0 0 0 0 127 0" result="hardAlpha"/>
<feOffset dy="2"/>
<feGaussianBlur stdDeviation="8.5"/>
<feColorMatrix type="matrix" values="0 0 0 0 0 0 0 0 0 0 0 0 0 0 0 0 0 0 0.5 0"/>
<feBlend mode="normal" in2="BackgroundImageFix" result="effect1_dropShadow_1_4"/>
<feBlend mode="normal" in="SourceGraphic" in2="effect1_dropShadow_1_4" result="shape"/>
</filter>
</defs>
</svg>
