<svg width="24" height="24" viewBox="0 0 24 24" fill="none" xmlns="http://www.w3.org/2000/svg">
<path fill-rule="evenodd" clip-rule="evenodd" d="M20 11.29C19.37 11.1 18.7 11 18 11C14.13 11 11 14.13 11 18C11 19.49 11.47 20.87 12.26 22H6C4.9 22 4 21.1 4 20V10C4 8.9 4.9 8 6 8H7V6C7 3.24 9.24 1 12 1C14.76 1 17 3.24 17 6V8H18C19.1 8 20 8.9 20 10V11.29ZM12 3C10.34 3 9 4.34 9 6V8H15V6C15 4.34 13.66 3 12 3Z" fill="#A6B1BB"/>
<path fill-rule="evenodd" clip-rule="evenodd" d="M13 18C13 15.24 15.24 13 18 13C20.76 13 23 15.24 23 18C23 20.76 20.76 23 18 23C15.24 23 13 20.76 13 18ZM19.29 20C19.49 20.2 19.8 20.2 20 20C20.2 19.8 20.2 19.49 19.99 19.29L18.49 17.79V15.5C18.49 15.22 18.27 15 17.99 15C17.71 15 17.49 15.22 17.49 15.5V18C17.49 18.13 17.55 18.26 17.64 18.35L19.29 20Z" fill="#A6B1BB"/>
</svg>
